#!OML:ASF G:\JayActor3\Patient Classification 1\Patient 1\Session 2\male.ASF
:FULLY-SPECIFIED
:DEGREES
3382
root -40.7416 16.7068 -4.6955 2525.94 -258.77 -1433.18
lowerback 1.43125 -2.97247 -7.41359
upperback 3.16561 -3.87344 -0.599222
thorax 2.93682 -2.08922 3.46169
lowerneck -11.385 2.01581 1.75027
upperneck 28.8231 2.22669 3.81331
head 11.1814 1.96359 1.43449
rclavicle 2.88238e-015 -2.38542e-014
rhumerus -36.5813 21.7242 -93.0462
rradius 97.1722
rwrist -8.96576
rhand -8.62935 9.54674
rfingers 7.12502
rthumb 17.3032 -19.703
lclavicle 2.88238e-015 -2.38542e-014
lhumerus -3.46072 -14.2488 75.0744
lradius 70.7841
lwrist 15.6918
lhand -8.04859 19.0867
lfingers 7.12502
lthumb 17.8621 48.2864
rfemur -25.1896 -1.27577 22.3546
rtibia 43.9723
rfoot -23.7744 -19.9592
rtoes 1.88296
lfemur -0.437416 18.2594 -27.7842
ltibia 18.7241
lfoot -27.6097 31.228
ltoes 5.35698
3383
root -40.7304 16.7048 -4.69757 2526.12 -259.32 -1432.96
lowerback 1.33031 -3.03857 -7.49021
upperback 3.0991 -3.95901 -0.572248
thorax 2.94209 -2.13388 3.52589
lowerneck -11.3537 2.24125 1.92581
upperneck 28.6988 2.50103 3.80765
head 11.1276 2.09977 1.43224
rclavicle -5.54609e-014 -2.94201e-014
rhumerus -36.6235 21.637 -93.015
rradius 97.2912
rwrist -8.96634
rhand -8.60524 9.54841
rfingers 7.12502
rthumb 17.3264 -19.6993
lclavicle -5.54609e-014 -2.94201e-014
lhumerus -3.7917 -14.596 75.8724
lradius 70.9263
lwrist 15.7697
lhand -7.92986 19.1675
lfingers 7.12502
lthumb 17.9763 48.3568
rfemur -25.1773 -1.30698 22.3133
rtibia 43.9218
rfoot -23.9904 -19.5344
rtoes 3.21722
lfemur -0.252164 18.1783 -27.8783
ltibia 18.4899
lfoot -28.2019 31.5599
ltoes 6.06276
3384
root -40.7179 16.7027 -4.69934 2526.33 -259.851 -1432.72
lowerback 1.22713 -3.10385 -7.56045
upperback 3.03515 -4.04306 -0.541787
thorax 2.95118 -2.1778 3.58975
lowerneck -11.3209 2.47948 2.10898
upperneck 28.5671 2.79155 3.80414
head 11.0715 2.24425 1.43115
rclavicle -3.67752e-015 2.14687e-014
rhumerus -36.6589 21.5402 -92.9687
rradius 97.4115
rwrist -8.97771
rhand -8.5784 9.56982
rfingers 7.12502
rthumb 17.3522 -19.6756
lclavicle -3.67752e-015 2.14687e-014
lhumerus -4.14011 -14.9469 76.6888
lradius 71.0675
lwrist 15.8538
lhand -7.85065 19.2489
lfingers 7.12502
lthumb 18.0525 48.4311
rfemur -25.1515 -1.31804 22.2741
rtibia 43.8538
rfoot -24.2071 -19.0542
rtoes 4.67469
lfemur -0.0675563 18.0921 -27.9654
ltibia 18.2684
lfoot -28.79 31.8794
ltoes 6.74441
3385
root -40.7042 16.7006 -4.70081 2526.55 -260.358 -1432.47
lowerback 1.12116 -3.16866 -7.6224
upperback 2.97352 -4.12603 -0.508833
thorax 2.96393 -2.22113 3.65116
lowerneck -11.2872 2.72909 2.30077
upperneck 28.4296 3.09606 3.80283
head 11.0139 2.39621 1.43083
rclavicle 1.76918e-014 -5.56597e-015
rhumerus -36.6899 21.4334 -92.909
rradius 97.5355
rwrist -8.99475
rhand -8.56226 9.57324
rfingers 7.12502
rthumb 17.3678 -19.6708
lclavicle 1.76918e-014 -5.56597e-015
lhumerus -4.49476 -15.2964 77.5275
lradius 71.2008
lwrist 15.9388
lhand -7.79875 19.3286
lfingers 7.12502
lthumb 18.1025 48.5062
rfemur -25.1112 -1.32329 22.2379
rtibia 43.7648
rfoot -24.3999 -18.5242
rtoes 6.21313
lfemur 0.114368 18.0024 -28.0451
ltibia 18.0623
lfoot -29.3699 32.1812
ltoes 7.40587
3386
root -40.6894 16.6987 -4.70196 2526.85 -260.846 -1432.14
lowerback 1.01843 -3.23062 -7.66601
upperback 2.90695 -4.20589 -0.473188
thorax 2.96827 -2.26209 3.70552
lowerneck -11.2421 2.99126 2.50702
upperneck 28.2861 3.41602 3.80287
head 10.9529 2.55696 1.42991
rclavicle -5.66536e-015 -3.18055e-014
rhumerus -36.7217 21.3157 -92.8432
rradius 97.6587
rwrist -9.01446
rhand -8.53629 9.57657
rfingers 7.12502
rthumb 17.3928 -19.6653
lclavicle -5.66536e-015 -3.18055e-014
lhumerus -4.87244 -15.6572 78.384
lradius 71.331
lwrist 16.0116
lhand -7.77164 19.3994
lfingers 7.12502
lthumb 18.1286 48.5746
rfemur -25.0603 -1.31948 22.2152
rtibia 43.6546
rfoot -24.5584 -17.9525
rtoes 7.77452
lfemur 0.291129 17.8939 -28.1131
ltibia 17.8662
lfoot -29.9443 32.4891
ltoes 8.03072
3387
root -40.6732 16.697 -4.70211 2527.16 -261.292 -1431.8
lowerback 0.920074 -3.29783 -7.7112
upperback 2.8394 -4.29314 -0.433521
thorax 2.97071 -2.30669 3.76474
lowerneck -11.1886 3.26526 2.72473
upperneck 28.1397 3.75186 3.80108
head 10.8904 2.726 1.42793
rclavicle 8.74653e-015 -5.56597e-015
rhumerus -36.7558 21.192 -92.7678
rradius 97.7848
rwrist -9.02882
rhand -8.48428 9.56718
rfingers 7.12502
rthumb 17.4428 -19.6702
lclavicle 8.74653e-015 -5.56597e-015
lhumerus -5.26457 -16.0218 79.2606
lradius 71.4562
lwrist 16.0712
lhand -7.77046 19.4647
lfingers 7.12502
lthumb 18.1297 48.6397
rfemur -24.99 -1.32098 22.1995
rtibia 43.5264
rfoot -24.689 -17.3482
rtoes 9.38244
lfemur 0.479881 17.7654 -28.1691
ltibia 17.6694
lfoot -30.5038 32.7777
ltoes 8.63899
